G04 #@! TF.GenerationSoftware,KiCad,Pcbnew,5.0.2-bee76a0~70~ubuntu16.04.1*
G04 #@! TF.CreationDate,2019-07-12T12:57:40-07:00*
G04 #@! TF.ProjectId,beacon-pcb,62656163-6f6e-42d7-9063-622e6b696361,rev?*
G04 #@! TF.SameCoordinates,Original*
G04 #@! TF.FileFunction,Copper,L2,Bot*
G04 #@! TF.FilePolarity,Positive*
%FSLAX46Y46*%
G04 Gerber Fmt 4.6, Leading zero omitted, Abs format (unit mm)*
G04 Created by KiCad (PCBNEW 5.0.2-bee76a0~70~ubuntu16.04.1) date Fri 12 Jul 2019 12:57:40 PM PDT*
%MOMM*%
%LPD*%
G01*
G04 APERTURE LIST*
G04 #@! TA.AperFunction,ComponentPad*
%ADD10C,2.540000*%
G04 #@! TD*
G04 #@! TA.AperFunction,ConnectorPad*
%ADD11C,0.787400*%
G04 #@! TD*
G04 #@! TA.AperFunction,ViaPad*
%ADD12C,0.800000*%
G04 #@! TD*
G04 #@! TA.AperFunction,Conductor*
%ADD13C,0.250000*%
G04 #@! TD*
G04 #@! TA.AperFunction,Conductor*
%ADD14C,0.500000*%
G04 #@! TD*
G04 APERTURE END LIST*
D10*
G04 #@! TO.P,BT1,2*
G04 #@! TO.N,GND*
X198761593Y-111789378D03*
G04 #@! TO.P,BT1,1*
G04 #@! TO.N,+BATT*
X96761593Y-111789378D03*
G04 #@! TD*
D11*
G04 #@! TO.P,J1,1*
G04 #@! TO.N,+BATT*
X205396593Y-110494379D03*
G04 #@! TO.P,J1,2*
G04 #@! TO.N,/SWDIO*
X204126593Y-110494379D03*
G04 #@! TO.P,J1,3*
G04 #@! TO.N,/UART_TXD*
X205396593Y-111764379D03*
G04 #@! TO.P,J1,4*
G04 #@! TO.N,/SWCLK*
X204126593Y-111764379D03*
G04 #@! TO.P,J1,5*
G04 #@! TO.N,GND*
X205396593Y-113034379D03*
G04 #@! TO.P,J1,6*
G04 #@! TO.N,/UART_RXD*
X204126593Y-113034379D03*
G04 #@! TD*
D12*
G04 #@! TO.N,GND*
X198761593Y-115764379D03*
X172000000Y-113750000D03*
X187750000Y-117664379D03*
G04 #@! TO.N,+BATT*
X188761593Y-118764379D03*
X203011593Y-108264379D03*
G04 #@! TO.N,/UART_TXD*
X192984595Y-115464379D03*
G04 #@! TO.N,/UART_RXD*
X200411593Y-114364379D03*
G04 #@! TO.N,/SWCLK*
X202011593Y-111764379D03*
G04 #@! TO.N,/SWDIO*
X202011593Y-110514379D03*
G04 #@! TO.N,Net-(D1-Pad2)*
X196761593Y-113264379D03*
X198761593Y-118389379D03*
G04 #@! TD*
D13*
G04 #@! TO.N,GND*
X205396593Y-113034379D02*
X204761593Y-113669379D01*
X204761593Y-113669379D02*
X204761593Y-115264379D01*
X204761593Y-115264379D02*
X204261593Y-115764379D01*
X204261593Y-115764379D02*
X198761593Y-115764379D01*
D14*
X198761593Y-111789378D02*
X198761593Y-115764379D01*
X175914379Y-117664379D02*
X172000000Y-113750000D01*
X187750000Y-117664379D02*
X175914379Y-117664379D01*
D13*
G04 #@! TO.N,+BATT*
X205396593Y-110494379D02*
X205790292Y-110100680D01*
X205790292Y-108793078D02*
X205261593Y-108264379D01*
X205261593Y-108264379D02*
X203011593Y-108264379D01*
X205790292Y-110100680D02*
X205790292Y-108793078D01*
D14*
X172725001Y-118764379D02*
X165750000Y-111789378D01*
X188761593Y-118764379D02*
X172725001Y-118764379D01*
X96761593Y-111789378D02*
X165750000Y-111789378D01*
D13*
G04 #@! TO.N,/UART_TXD*
X206011593Y-111764379D02*
X205396593Y-111764379D01*
X192984595Y-115464379D02*
X192984595Y-113791377D01*
X206511593Y-111264379D02*
X206011593Y-111764379D01*
X205261593Y-107264379D02*
X206511593Y-108514379D01*
X192984595Y-113791377D02*
X199511593Y-107264379D01*
X206511593Y-108514379D02*
X206511593Y-111264379D01*
X199511593Y-107264379D02*
X205261593Y-107264379D01*
G04 #@! TO.N,/UART_RXD*
X204126593Y-113034379D02*
X201741593Y-113034379D01*
X200411593Y-114364379D02*
X201741593Y-113034379D01*
G04 #@! TO.N,/SWCLK*
X202011593Y-111764379D02*
X204126593Y-111764379D01*
G04 #@! TO.N,/SWDIO*
X202031593Y-110494379D02*
X202011593Y-110514379D01*
X204126593Y-110494379D02*
X202031593Y-110494379D01*
G04 #@! TO.N,Net-(D1-Pad2)*
X198361594Y-117989380D02*
X198761593Y-118389379D01*
X196761593Y-116389379D02*
X198361594Y-117989380D01*
X196761593Y-113264379D02*
X196761593Y-116389379D01*
G04 #@! TD*
M02*
