G04 #@! TF.GenerationSoftware,KiCad,Pcbnew,5.0.2-bee76a0~70~ubuntu16.04.1*
G04 #@! TF.CreationDate,2019-07-12T12:57:40-07:00*
G04 #@! TF.ProjectId,beacon-pcb,62656163-6f6e-42d7-9063-622e6b696361,rev?*
G04 #@! TF.SameCoordinates,Original*
G04 #@! TF.FileFunction,Copper,L1,Top*
G04 #@! TF.FilePolarity,Positive*
%FSLAX46Y46*%
G04 Gerber Fmt 4.6, Leading zero omitted, Abs format (unit mm)*
G04 Created by KiCad (PCBNEW 5.0.2-bee76a0~70~ubuntu16.04.1) date Fri 12 Jul 2019 12:57:40 PM PDT*
%MOMM*%
%LPD*%
G01*
G04 APERTURE LIST*
G04 #@! TA.AperFunction,EtchedComponent*
%ADD10C,0.100000*%
G04 #@! TD*
G04 #@! TA.AperFunction,ComponentPad*
%ADD11C,2.540000*%
G04 #@! TD*
G04 #@! TA.AperFunction,Conductor*
%ADD12C,0.100000*%
G04 #@! TD*
G04 #@! TA.AperFunction,SMDPad,CuDef*
%ADD13C,1.150000*%
G04 #@! TD*
G04 #@! TA.AperFunction,SMDPad,CuDef*
%ADD14R,1.500000X0.700000*%
G04 #@! TD*
G04 #@! TA.AperFunction,SMDPad,CuDef*
%ADD15C,0.950000*%
G04 #@! TD*
G04 #@! TA.AperFunction,SMDPad,CuDef*
%ADD16R,1.800000X1.000000*%
G04 #@! TD*
G04 #@! TA.AperFunction,ViaPad*
%ADD17C,0.800000*%
G04 #@! TD*
G04 #@! TA.AperFunction,Conductor*
%ADD18C,0.250000*%
G04 #@! TD*
G04 #@! TA.AperFunction,Conductor*
%ADD19C,0.500000*%
G04 #@! TD*
G04 APERTURE END LIST*
D10*
G04 #@! TO.C,dcfurs-logo*
G36*
X110218595Y-107937791D02*
X108767573Y-108233827D01*
X108649037Y-108111670D01*
X108499813Y-108014458D01*
X108322139Y-107948209D01*
X108141325Y-107923752D01*
X107965613Y-107940105D01*
X107965613Y-107940106D01*
X107800981Y-107993163D01*
X107652792Y-108078856D01*
X107527060Y-108193099D01*
X107429804Y-108331806D01*
X107367038Y-108490894D01*
X107344779Y-108666277D01*
X107368633Y-108839031D01*
X107436358Y-109000276D01*
X107542201Y-109144096D01*
X107680409Y-109264573D01*
X107845228Y-109355792D01*
X108022946Y-109395293D01*
X108216802Y-109387046D01*
X108410389Y-109345001D01*
X108582203Y-109264731D01*
X108724162Y-109145135D01*
X108827070Y-109004804D01*
X108891141Y-108850689D01*
X108916586Y-108689742D01*
X108903616Y-108528914D01*
X108853179Y-108374914D01*
X108767573Y-108233827D01*
X110218595Y-107937791D01*
X110050986Y-107988183D01*
X109899932Y-108071477D01*
X109771641Y-108183686D01*
X107633855Y-110930278D01*
X107539863Y-110790637D01*
X107458369Y-110640862D01*
X107390309Y-110481319D01*
X107322646Y-110282006D01*
X107301564Y-110188458D01*
X107300398Y-110184215D01*
X107333967Y-110161449D01*
X107426101Y-110092532D01*
X107485220Y-110001321D01*
X107494963Y-109892414D01*
X107454352Y-109793734D01*
X107352389Y-109703991D01*
X107214970Y-109654072D01*
X107048437Y-109638622D01*
X106885800Y-109652539D01*
X106750863Y-109698867D01*
X106649082Y-109784473D01*
X106606202Y-109879631D01*
X106609725Y-109985887D01*
X106659050Y-110078631D01*
X106740143Y-110154118D01*
X106789918Y-110214697D01*
X106837763Y-110382156D01*
X106881004Y-110555244D01*
X106939082Y-110722865D01*
X107011372Y-110884449D01*
X107097252Y-111039424D01*
X107196099Y-111187218D01*
X107307288Y-111327261D01*
X107430198Y-111458980D01*
X107564204Y-111581804D01*
X107708684Y-111695163D01*
X107863014Y-111798484D01*
X108026572Y-111891195D01*
X108198733Y-111972727D01*
X108378875Y-112042507D01*
X108566374Y-112099963D01*
X108735010Y-112136728D01*
X108914377Y-112160376D01*
X109101028Y-112171089D01*
X109291518Y-112169052D01*
X109482402Y-112154448D01*
X109670234Y-112127461D01*
X109851569Y-112088274D01*
X110022960Y-112037070D01*
X110204961Y-111966294D01*
X110380377Y-111882413D01*
X110548069Y-111786265D01*
X110706900Y-111678690D01*
X110855731Y-111560525D01*
X110993425Y-111432609D01*
X111118842Y-111295781D01*
X111230844Y-111150881D01*
X111328293Y-110998745D01*
X111391942Y-110875448D01*
X111451273Y-110736886D01*
X111503855Y-110592445D01*
X111564062Y-110388404D01*
X111587971Y-110213153D01*
X111626170Y-110150260D01*
X111704367Y-110083251D01*
X111754273Y-109999006D01*
X111739610Y-109813412D01*
X111618262Y-109688899D01*
X111443277Y-109627432D01*
X111443286Y-109627430D01*
X111308257Y-109619033D01*
X111163930Y-109641708D01*
X111017919Y-109699198D01*
X110909654Y-109813025D01*
X110880715Y-109887495D01*
X110892290Y-109992060D01*
X111014605Y-110128651D01*
X111079428Y-110182284D01*
X111053190Y-110282606D01*
X111001320Y-110441542D01*
X110929224Y-110601543D01*
X110839455Y-110759503D01*
X110734567Y-110912312D01*
X110617115Y-111056862D01*
X110489653Y-111190046D01*
X110354734Y-111308756D01*
X110214913Y-111409882D01*
X110072743Y-111490318D01*
X109906233Y-111562165D01*
X109737228Y-111618071D01*
X109566663Y-111658399D01*
X109395477Y-111683513D01*
X109224606Y-111693775D01*
X109054988Y-111689549D01*
X108887559Y-111671197D01*
X108723257Y-111639083D01*
X108563019Y-111593569D01*
X108407782Y-111535019D01*
X108258482Y-111463795D01*
X108116058Y-111380260D01*
X107981446Y-111284779D01*
X107855584Y-111177712D01*
X107739407Y-111059425D01*
X107633855Y-110930278D01*
X109771641Y-108183686D01*
X109672320Y-108320823D01*
X109608175Y-108478899D01*
X109585414Y-108653929D01*
X109603845Y-108807474D01*
X109656216Y-108953951D01*
X109738148Y-109088019D01*
X109845259Y-109204337D01*
X109973171Y-109297561D01*
X110117503Y-109362351D01*
X110274503Y-109387854D01*
X110447791Y-109383573D01*
X110642603Y-109346013D01*
X110808912Y-109270057D01*
X110944861Y-109162798D01*
X111048592Y-109031332D01*
X111118247Y-108882753D01*
X111151968Y-108724154D01*
X111148282Y-108562128D01*
X111107311Y-108403461D01*
X111029591Y-108255541D01*
X110915658Y-108125755D01*
X110766047Y-108021491D01*
X110581295Y-107950138D01*
X110397259Y-107923852D01*
X110218595Y-107937791D01*
X110218595Y-107937791D01*
G37*
G04 #@! TD*
D11*
G04 #@! TO.P,BT1,2*
G04 #@! TO.N,GND*
X198761593Y-111789378D03*
G04 #@! TO.P,BT1,1*
G04 #@! TO.N,+BATT*
X96761593Y-111789378D03*
G04 #@! TD*
D12*
G04 #@! TO.N,+BATT*
G04 #@! TO.C,C1*
G36*
X194986098Y-118190583D02*
X195010366Y-118194183D01*
X195034165Y-118200144D01*
X195057264Y-118208409D01*
X195079443Y-118218899D01*
X195100486Y-118231511D01*
X195120192Y-118246126D01*
X195138370Y-118262602D01*
X195154846Y-118280780D01*
X195169461Y-118300486D01*
X195182073Y-118321529D01*
X195192563Y-118343708D01*
X195200828Y-118366807D01*
X195206789Y-118390606D01*
X195210389Y-118414874D01*
X195211593Y-118439378D01*
X195211593Y-119089380D01*
X195210389Y-119113884D01*
X195206789Y-119138152D01*
X195200828Y-119161951D01*
X195192563Y-119185050D01*
X195182073Y-119207229D01*
X195169461Y-119228272D01*
X195154846Y-119247978D01*
X195138370Y-119266156D01*
X195120192Y-119282632D01*
X195100486Y-119297247D01*
X195079443Y-119309859D01*
X195057264Y-119320349D01*
X195034165Y-119328614D01*
X195010366Y-119334575D01*
X194986098Y-119338175D01*
X194961594Y-119339379D01*
X194061592Y-119339379D01*
X194037088Y-119338175D01*
X194012820Y-119334575D01*
X193989021Y-119328614D01*
X193965922Y-119320349D01*
X193943743Y-119309859D01*
X193922700Y-119297247D01*
X193902994Y-119282632D01*
X193884816Y-119266156D01*
X193868340Y-119247978D01*
X193853725Y-119228272D01*
X193841113Y-119207229D01*
X193830623Y-119185050D01*
X193822358Y-119161951D01*
X193816397Y-119138152D01*
X193812797Y-119113884D01*
X193811593Y-119089380D01*
X193811593Y-118439378D01*
X193812797Y-118414874D01*
X193816397Y-118390606D01*
X193822358Y-118366807D01*
X193830623Y-118343708D01*
X193841113Y-118321529D01*
X193853725Y-118300486D01*
X193868340Y-118280780D01*
X193884816Y-118262602D01*
X193902994Y-118246126D01*
X193922700Y-118231511D01*
X193943743Y-118218899D01*
X193965922Y-118208409D01*
X193989021Y-118200144D01*
X194012820Y-118194183D01*
X194037088Y-118190583D01*
X194061592Y-118189379D01*
X194961594Y-118189379D01*
X194986098Y-118190583D01*
X194986098Y-118190583D01*
G37*
D13*
G04 #@! TD*
G04 #@! TO.P,C1,1*
G04 #@! TO.N,+BATT*
X194511593Y-118764379D03*
D12*
G04 #@! TO.N,GND*
G04 #@! TO.C,C1*
G36*
X194986098Y-116140583D02*
X195010366Y-116144183D01*
X195034165Y-116150144D01*
X195057264Y-116158409D01*
X195079443Y-116168899D01*
X195100486Y-116181511D01*
X195120192Y-116196126D01*
X195138370Y-116212602D01*
X195154846Y-116230780D01*
X195169461Y-116250486D01*
X195182073Y-116271529D01*
X195192563Y-116293708D01*
X195200828Y-116316807D01*
X195206789Y-116340606D01*
X195210389Y-116364874D01*
X195211593Y-116389378D01*
X195211593Y-117039380D01*
X195210389Y-117063884D01*
X195206789Y-117088152D01*
X195200828Y-117111951D01*
X195192563Y-117135050D01*
X195182073Y-117157229D01*
X195169461Y-117178272D01*
X195154846Y-117197978D01*
X195138370Y-117216156D01*
X195120192Y-117232632D01*
X195100486Y-117247247D01*
X195079443Y-117259859D01*
X195057264Y-117270349D01*
X195034165Y-117278614D01*
X195010366Y-117284575D01*
X194986098Y-117288175D01*
X194961594Y-117289379D01*
X194061592Y-117289379D01*
X194037088Y-117288175D01*
X194012820Y-117284575D01*
X193989021Y-117278614D01*
X193965922Y-117270349D01*
X193943743Y-117259859D01*
X193922700Y-117247247D01*
X193902994Y-117232632D01*
X193884816Y-117216156D01*
X193868340Y-117197978D01*
X193853725Y-117178272D01*
X193841113Y-117157229D01*
X193830623Y-117135050D01*
X193822358Y-117111951D01*
X193816397Y-117088152D01*
X193812797Y-117063884D01*
X193811593Y-117039380D01*
X193811593Y-116389378D01*
X193812797Y-116364874D01*
X193816397Y-116340606D01*
X193822358Y-116316807D01*
X193830623Y-116293708D01*
X193841113Y-116271529D01*
X193853725Y-116250486D01*
X193868340Y-116230780D01*
X193884816Y-116212602D01*
X193902994Y-116196126D01*
X193922700Y-116181511D01*
X193943743Y-116168899D01*
X193965922Y-116158409D01*
X193989021Y-116150144D01*
X194012820Y-116144183D01*
X194037088Y-116140583D01*
X194061592Y-116139379D01*
X194961594Y-116139379D01*
X194986098Y-116140583D01*
X194986098Y-116140583D01*
G37*
D13*
G04 #@! TD*
G04 #@! TO.P,C1,2*
G04 #@! TO.N,GND*
X194511593Y-116714379D03*
D14*
G04 #@! TO.P,IC1,8*
G04 #@! TO.N,Net-(IC1-Pad8)*
X177011593Y-118764379D03*
G04 #@! TO.P,IC1,7*
G04 #@! TO.N,Net-(IC1-Pad7)*
X177011593Y-117664379D03*
G04 #@! TO.P,IC1,6*
G04 #@! TO.N,Net-(IC1-Pad6)*
X177011593Y-116564379D03*
G04 #@! TO.P,IC1,5*
G04 #@! TO.N,Net-(IC1-Pad5)*
X177011593Y-115464379D03*
G04 #@! TO.P,IC1,4*
G04 #@! TO.N,Net-(C3-Pad1)*
X177011593Y-114364379D03*
G04 #@! TO.P,IC1,3*
G04 #@! TO.N,Net-(C2-Pad1)*
X177011593Y-113264379D03*
G04 #@! TO.P,IC1,2*
G04 #@! TO.N,Net-(IC1-Pad2)*
X177011593Y-112164379D03*
G04 #@! TO.P,IC1,1*
G04 #@! TO.N,Net-(IC1-Pad1)*
X177011593Y-111064379D03*
G04 #@! TO.P,IC1,9*
G04 #@! TO.N,+BATT*
X191011593Y-118764379D03*
G04 #@! TO.P,IC1,10*
G04 #@! TO.N,GND*
X191011593Y-117664379D03*
G04 #@! TO.P,IC1,11*
G04 #@! TO.N,Net-(IC1-Pad11)*
X191011593Y-116564379D03*
G04 #@! TO.P,IC1,12*
G04 #@! TO.N,/UART_TXD*
X191011593Y-115464379D03*
G04 #@! TO.P,IC1,13*
G04 #@! TO.N,/UART_RXD*
X191011593Y-114364379D03*
G04 #@! TO.P,IC1,14*
G04 #@! TO.N,Net-(IC1-Pad14)*
X191011593Y-113264379D03*
G04 #@! TO.P,IC1,15*
G04 #@! TO.N,/SWCLK*
X191011593Y-112164379D03*
G04 #@! TO.P,IC1,16*
G04 #@! TO.N,/SWDIO*
X191011593Y-111064379D03*
G04 #@! TD*
D12*
G04 #@! TO.N,GND*
G04 #@! TO.C,D1*
G36*
X200522372Y-116115523D02*
X200545427Y-116118942D01*
X200568036Y-116124606D01*
X200589980Y-116132458D01*
X200611050Y-116142423D01*
X200631041Y-116154405D01*
X200649761Y-116168289D01*
X200667031Y-116183941D01*
X200682683Y-116201211D01*
X200696567Y-116219931D01*
X200708549Y-116239922D01*
X200718514Y-116260992D01*
X200726366Y-116282936D01*
X200732030Y-116305545D01*
X200735449Y-116328600D01*
X200736593Y-116351879D01*
X200736593Y-116926879D01*
X200735449Y-116950158D01*
X200732030Y-116973213D01*
X200726366Y-116995822D01*
X200718514Y-117017766D01*
X200708549Y-117038836D01*
X200696567Y-117058827D01*
X200682683Y-117077547D01*
X200667031Y-117094817D01*
X200649761Y-117110469D01*
X200631041Y-117124353D01*
X200611050Y-117136335D01*
X200589980Y-117146300D01*
X200568036Y-117154152D01*
X200545427Y-117159816D01*
X200522372Y-117163235D01*
X200499093Y-117164379D01*
X200024093Y-117164379D01*
X200000814Y-117163235D01*
X199977759Y-117159816D01*
X199955150Y-117154152D01*
X199933206Y-117146300D01*
X199912136Y-117136335D01*
X199892145Y-117124353D01*
X199873425Y-117110469D01*
X199856155Y-117094817D01*
X199840503Y-117077547D01*
X199826619Y-117058827D01*
X199814637Y-117038836D01*
X199804672Y-117017766D01*
X199796820Y-116995822D01*
X199791156Y-116973213D01*
X199787737Y-116950158D01*
X199786593Y-116926879D01*
X199786593Y-116351879D01*
X199787737Y-116328600D01*
X199791156Y-116305545D01*
X199796820Y-116282936D01*
X199804672Y-116260992D01*
X199814637Y-116239922D01*
X199826619Y-116219931D01*
X199840503Y-116201211D01*
X199856155Y-116183941D01*
X199873425Y-116168289D01*
X199892145Y-116154405D01*
X199912136Y-116142423D01*
X199933206Y-116132458D01*
X199955150Y-116124606D01*
X199977759Y-116118942D01*
X200000814Y-116115523D01*
X200024093Y-116114379D01*
X200499093Y-116114379D01*
X200522372Y-116115523D01*
X200522372Y-116115523D01*
G37*
D15*
G04 #@! TD*
G04 #@! TO.P,D1,1*
G04 #@! TO.N,GND*
X200261593Y-116639379D03*
D12*
G04 #@! TO.N,Net-(D1-Pad2)*
G04 #@! TO.C,D1*
G36*
X200522372Y-117865523D02*
X200545427Y-117868942D01*
X200568036Y-117874606D01*
X200589980Y-117882458D01*
X200611050Y-117892423D01*
X200631041Y-117904405D01*
X200649761Y-117918289D01*
X200667031Y-117933941D01*
X200682683Y-117951211D01*
X200696567Y-117969931D01*
X200708549Y-117989922D01*
X200718514Y-118010992D01*
X200726366Y-118032936D01*
X200732030Y-118055545D01*
X200735449Y-118078600D01*
X200736593Y-118101879D01*
X200736593Y-118676879D01*
X200735449Y-118700158D01*
X200732030Y-118723213D01*
X200726366Y-118745822D01*
X200718514Y-118767766D01*
X200708549Y-118788836D01*
X200696567Y-118808827D01*
X200682683Y-118827547D01*
X200667031Y-118844817D01*
X200649761Y-118860469D01*
X200631041Y-118874353D01*
X200611050Y-118886335D01*
X200589980Y-118896300D01*
X200568036Y-118904152D01*
X200545427Y-118909816D01*
X200522372Y-118913235D01*
X200499093Y-118914379D01*
X200024093Y-118914379D01*
X200000814Y-118913235D01*
X199977759Y-118909816D01*
X199955150Y-118904152D01*
X199933206Y-118896300D01*
X199912136Y-118886335D01*
X199892145Y-118874353D01*
X199873425Y-118860469D01*
X199856155Y-118844817D01*
X199840503Y-118827547D01*
X199826619Y-118808827D01*
X199814637Y-118788836D01*
X199804672Y-118767766D01*
X199796820Y-118745822D01*
X199791156Y-118723213D01*
X199787737Y-118700158D01*
X199786593Y-118676879D01*
X199786593Y-118101879D01*
X199787737Y-118078600D01*
X199791156Y-118055545D01*
X199796820Y-118032936D01*
X199804672Y-118010992D01*
X199814637Y-117989922D01*
X199826619Y-117969931D01*
X199840503Y-117951211D01*
X199856155Y-117933941D01*
X199873425Y-117918289D01*
X199892145Y-117904405D01*
X199912136Y-117892423D01*
X199933206Y-117882458D01*
X199955150Y-117874606D01*
X199977759Y-117868942D01*
X200000814Y-117865523D01*
X200024093Y-117864379D01*
X200499093Y-117864379D01*
X200522372Y-117865523D01*
X200522372Y-117865523D01*
G37*
D15*
G04 #@! TD*
G04 #@! TO.P,D1,2*
G04 #@! TO.N,Net-(D1-Pad2)*
X200261593Y-118389379D03*
D12*
G04 #@! TO.N,Net-(IC1-Pad14)*
G04 #@! TO.C,R1*
G36*
X193947372Y-112790523D02*
X193970427Y-112793942D01*
X193993036Y-112799606D01*
X194014980Y-112807458D01*
X194036050Y-112817423D01*
X194056041Y-112829405D01*
X194074761Y-112843289D01*
X194092031Y-112858941D01*
X194107683Y-112876211D01*
X194121567Y-112894931D01*
X194133549Y-112914922D01*
X194143514Y-112935992D01*
X194151366Y-112957936D01*
X194157030Y-112980545D01*
X194160449Y-113003600D01*
X194161593Y-113026879D01*
X194161593Y-113501879D01*
X194160449Y-113525158D01*
X194157030Y-113548213D01*
X194151366Y-113570822D01*
X194143514Y-113592766D01*
X194133549Y-113613836D01*
X194121567Y-113633827D01*
X194107683Y-113652547D01*
X194092031Y-113669817D01*
X194074761Y-113685469D01*
X194056041Y-113699353D01*
X194036050Y-113711335D01*
X194014980Y-113721300D01*
X193993036Y-113729152D01*
X193970427Y-113734816D01*
X193947372Y-113738235D01*
X193924093Y-113739379D01*
X193349093Y-113739379D01*
X193325814Y-113738235D01*
X193302759Y-113734816D01*
X193280150Y-113729152D01*
X193258206Y-113721300D01*
X193237136Y-113711335D01*
X193217145Y-113699353D01*
X193198425Y-113685469D01*
X193181155Y-113669817D01*
X193165503Y-113652547D01*
X193151619Y-113633827D01*
X193139637Y-113613836D01*
X193129672Y-113592766D01*
X193121820Y-113570822D01*
X193116156Y-113548213D01*
X193112737Y-113525158D01*
X193111593Y-113501879D01*
X193111593Y-113026879D01*
X193112737Y-113003600D01*
X193116156Y-112980545D01*
X193121820Y-112957936D01*
X193129672Y-112935992D01*
X193139637Y-112914922D01*
X193151619Y-112894931D01*
X193165503Y-112876211D01*
X193181155Y-112858941D01*
X193198425Y-112843289D01*
X193217145Y-112829405D01*
X193237136Y-112817423D01*
X193258206Y-112807458D01*
X193280150Y-112799606D01*
X193302759Y-112793942D01*
X193325814Y-112790523D01*
X193349093Y-112789379D01*
X193924093Y-112789379D01*
X193947372Y-112790523D01*
X193947372Y-112790523D01*
G37*
D15*
G04 #@! TD*
G04 #@! TO.P,R1,1*
G04 #@! TO.N,Net-(IC1-Pad14)*
X193636593Y-113264379D03*
D12*
G04 #@! TO.N,Net-(D1-Pad2)*
G04 #@! TO.C,R1*
G36*
X195697372Y-112790523D02*
X195720427Y-112793942D01*
X195743036Y-112799606D01*
X195764980Y-112807458D01*
X195786050Y-112817423D01*
X195806041Y-112829405D01*
X195824761Y-112843289D01*
X195842031Y-112858941D01*
X195857683Y-112876211D01*
X195871567Y-112894931D01*
X195883549Y-112914922D01*
X195893514Y-112935992D01*
X195901366Y-112957936D01*
X195907030Y-112980545D01*
X195910449Y-113003600D01*
X195911593Y-113026879D01*
X195911593Y-113501879D01*
X195910449Y-113525158D01*
X195907030Y-113548213D01*
X195901366Y-113570822D01*
X195893514Y-113592766D01*
X195883549Y-113613836D01*
X195871567Y-113633827D01*
X195857683Y-113652547D01*
X195842031Y-113669817D01*
X195824761Y-113685469D01*
X195806041Y-113699353D01*
X195786050Y-113711335D01*
X195764980Y-113721300D01*
X195743036Y-113729152D01*
X195720427Y-113734816D01*
X195697372Y-113738235D01*
X195674093Y-113739379D01*
X195099093Y-113739379D01*
X195075814Y-113738235D01*
X195052759Y-113734816D01*
X195030150Y-113729152D01*
X195008206Y-113721300D01*
X194987136Y-113711335D01*
X194967145Y-113699353D01*
X194948425Y-113685469D01*
X194931155Y-113669817D01*
X194915503Y-113652547D01*
X194901619Y-113633827D01*
X194889637Y-113613836D01*
X194879672Y-113592766D01*
X194871820Y-113570822D01*
X194866156Y-113548213D01*
X194862737Y-113525158D01*
X194861593Y-113501879D01*
X194861593Y-113026879D01*
X194862737Y-113003600D01*
X194866156Y-112980545D01*
X194871820Y-112957936D01*
X194879672Y-112935992D01*
X194889637Y-112914922D01*
X194901619Y-112894931D01*
X194915503Y-112876211D01*
X194931155Y-112858941D01*
X194948425Y-112843289D01*
X194967145Y-112829405D01*
X194987136Y-112817423D01*
X195008206Y-112807458D01*
X195030150Y-112799606D01*
X195052759Y-112793942D01*
X195075814Y-112790523D01*
X195099093Y-112789379D01*
X195674093Y-112789379D01*
X195697372Y-112790523D01*
X195697372Y-112790523D01*
G37*
D15*
G04 #@! TD*
G04 #@! TO.P,R1,2*
G04 #@! TO.N,Net-(D1-Pad2)*
X195386593Y-113264379D03*
D12*
G04 #@! TO.N,GND*
G04 #@! TO.C,C2*
G36*
X173185779Y-109776144D02*
X173208834Y-109779563D01*
X173231443Y-109785227D01*
X173253387Y-109793079D01*
X173274457Y-109803044D01*
X173294448Y-109815026D01*
X173313168Y-109828910D01*
X173330438Y-109844562D01*
X173346090Y-109861832D01*
X173359974Y-109880552D01*
X173371956Y-109900543D01*
X173381921Y-109921613D01*
X173389773Y-109943557D01*
X173395437Y-109966166D01*
X173398856Y-109989221D01*
X173400000Y-110012500D01*
X173400000Y-110487500D01*
X173398856Y-110510779D01*
X173395437Y-110533834D01*
X173389773Y-110556443D01*
X173381921Y-110578387D01*
X173371956Y-110599457D01*
X173359974Y-110619448D01*
X173346090Y-110638168D01*
X173330438Y-110655438D01*
X173313168Y-110671090D01*
X173294448Y-110684974D01*
X173274457Y-110696956D01*
X173253387Y-110706921D01*
X173231443Y-110714773D01*
X173208834Y-110720437D01*
X173185779Y-110723856D01*
X173162500Y-110725000D01*
X172587500Y-110725000D01*
X172564221Y-110723856D01*
X172541166Y-110720437D01*
X172518557Y-110714773D01*
X172496613Y-110706921D01*
X172475543Y-110696956D01*
X172455552Y-110684974D01*
X172436832Y-110671090D01*
X172419562Y-110655438D01*
X172403910Y-110638168D01*
X172390026Y-110619448D01*
X172378044Y-110599457D01*
X172368079Y-110578387D01*
X172360227Y-110556443D01*
X172354563Y-110533834D01*
X172351144Y-110510779D01*
X172350000Y-110487500D01*
X172350000Y-110012500D01*
X172351144Y-109989221D01*
X172354563Y-109966166D01*
X172360227Y-109943557D01*
X172368079Y-109921613D01*
X172378044Y-109900543D01*
X172390026Y-109880552D01*
X172403910Y-109861832D01*
X172419562Y-109844562D01*
X172436832Y-109828910D01*
X172455552Y-109815026D01*
X172475543Y-109803044D01*
X172496613Y-109793079D01*
X172518557Y-109785227D01*
X172541166Y-109779563D01*
X172564221Y-109776144D01*
X172587500Y-109775000D01*
X173162500Y-109775000D01*
X173185779Y-109776144D01*
X173185779Y-109776144D01*
G37*
D15*
G04 #@! TD*
G04 #@! TO.P,C2,2*
G04 #@! TO.N,GND*
X172875000Y-110250000D03*
D12*
G04 #@! TO.N,Net-(C2-Pad1)*
G04 #@! TO.C,C2*
G36*
X174935779Y-109776144D02*
X174958834Y-109779563D01*
X174981443Y-109785227D01*
X175003387Y-109793079D01*
X175024457Y-109803044D01*
X175044448Y-109815026D01*
X175063168Y-109828910D01*
X175080438Y-109844562D01*
X175096090Y-109861832D01*
X175109974Y-109880552D01*
X175121956Y-109900543D01*
X175131921Y-109921613D01*
X175139773Y-109943557D01*
X175145437Y-109966166D01*
X175148856Y-109989221D01*
X175150000Y-110012500D01*
X175150000Y-110487500D01*
X175148856Y-110510779D01*
X175145437Y-110533834D01*
X175139773Y-110556443D01*
X175131921Y-110578387D01*
X175121956Y-110599457D01*
X175109974Y-110619448D01*
X175096090Y-110638168D01*
X175080438Y-110655438D01*
X175063168Y-110671090D01*
X175044448Y-110684974D01*
X175024457Y-110696956D01*
X175003387Y-110706921D01*
X174981443Y-110714773D01*
X174958834Y-110720437D01*
X174935779Y-110723856D01*
X174912500Y-110725000D01*
X174337500Y-110725000D01*
X174314221Y-110723856D01*
X174291166Y-110720437D01*
X174268557Y-110714773D01*
X174246613Y-110706921D01*
X174225543Y-110696956D01*
X174205552Y-110684974D01*
X174186832Y-110671090D01*
X174169562Y-110655438D01*
X174153910Y-110638168D01*
X174140026Y-110619448D01*
X174128044Y-110599457D01*
X174118079Y-110578387D01*
X174110227Y-110556443D01*
X174104563Y-110533834D01*
X174101144Y-110510779D01*
X174100000Y-110487500D01*
X174100000Y-110012500D01*
X174101144Y-109989221D01*
X174104563Y-109966166D01*
X174110227Y-109943557D01*
X174118079Y-109921613D01*
X174128044Y-109900543D01*
X174140026Y-109880552D01*
X174153910Y-109861832D01*
X174169562Y-109844562D01*
X174186832Y-109828910D01*
X174205552Y-109815026D01*
X174225543Y-109803044D01*
X174246613Y-109793079D01*
X174268557Y-109785227D01*
X174291166Y-109779563D01*
X174314221Y-109776144D01*
X174337500Y-109775000D01*
X174912500Y-109775000D01*
X174935779Y-109776144D01*
X174935779Y-109776144D01*
G37*
D15*
G04 #@! TD*
G04 #@! TO.P,C2,1*
G04 #@! TO.N,Net-(C2-Pad1)*
X174625000Y-110250000D03*
D12*
G04 #@! TO.N,Net-(C3-Pad1)*
G04 #@! TO.C,C3*
G36*
X174935779Y-116776144D02*
X174958834Y-116779563D01*
X174981443Y-116785227D01*
X175003387Y-116793079D01*
X175024457Y-116803044D01*
X175044448Y-116815026D01*
X175063168Y-116828910D01*
X175080438Y-116844562D01*
X175096090Y-116861832D01*
X175109974Y-116880552D01*
X175121956Y-116900543D01*
X175131921Y-116921613D01*
X175139773Y-116943557D01*
X175145437Y-116966166D01*
X175148856Y-116989221D01*
X175150000Y-117012500D01*
X175150000Y-117487500D01*
X175148856Y-117510779D01*
X175145437Y-117533834D01*
X175139773Y-117556443D01*
X175131921Y-117578387D01*
X175121956Y-117599457D01*
X175109974Y-117619448D01*
X175096090Y-117638168D01*
X175080438Y-117655438D01*
X175063168Y-117671090D01*
X175044448Y-117684974D01*
X175024457Y-117696956D01*
X175003387Y-117706921D01*
X174981443Y-117714773D01*
X174958834Y-117720437D01*
X174935779Y-117723856D01*
X174912500Y-117725000D01*
X174337500Y-117725000D01*
X174314221Y-117723856D01*
X174291166Y-117720437D01*
X174268557Y-117714773D01*
X174246613Y-117706921D01*
X174225543Y-117696956D01*
X174205552Y-117684974D01*
X174186832Y-117671090D01*
X174169562Y-117655438D01*
X174153910Y-117638168D01*
X174140026Y-117619448D01*
X174128044Y-117599457D01*
X174118079Y-117578387D01*
X174110227Y-117556443D01*
X174104563Y-117533834D01*
X174101144Y-117510779D01*
X174100000Y-117487500D01*
X174100000Y-117012500D01*
X174101144Y-116989221D01*
X174104563Y-116966166D01*
X174110227Y-116943557D01*
X174118079Y-116921613D01*
X174128044Y-116900543D01*
X174140026Y-116880552D01*
X174153910Y-116861832D01*
X174169562Y-116844562D01*
X174186832Y-116828910D01*
X174205552Y-116815026D01*
X174225543Y-116803044D01*
X174246613Y-116793079D01*
X174268557Y-116785227D01*
X174291166Y-116779563D01*
X174314221Y-116776144D01*
X174337500Y-116775000D01*
X174912500Y-116775000D01*
X174935779Y-116776144D01*
X174935779Y-116776144D01*
G37*
D15*
G04 #@! TD*
G04 #@! TO.P,C3,1*
G04 #@! TO.N,Net-(C3-Pad1)*
X174625000Y-117250000D03*
D12*
G04 #@! TO.N,GND*
G04 #@! TO.C,C3*
G36*
X173185779Y-116776144D02*
X173208834Y-116779563D01*
X173231443Y-116785227D01*
X173253387Y-116793079D01*
X173274457Y-116803044D01*
X173294448Y-116815026D01*
X173313168Y-116828910D01*
X173330438Y-116844562D01*
X173346090Y-116861832D01*
X173359974Y-116880552D01*
X173371956Y-116900543D01*
X173381921Y-116921613D01*
X173389773Y-116943557D01*
X173395437Y-116966166D01*
X173398856Y-116989221D01*
X173400000Y-117012500D01*
X173400000Y-117487500D01*
X173398856Y-117510779D01*
X173395437Y-117533834D01*
X173389773Y-117556443D01*
X173381921Y-117578387D01*
X173371956Y-117599457D01*
X173359974Y-117619448D01*
X173346090Y-117638168D01*
X173330438Y-117655438D01*
X173313168Y-117671090D01*
X173294448Y-117684974D01*
X173274457Y-117696956D01*
X173253387Y-117706921D01*
X173231443Y-117714773D01*
X173208834Y-117720437D01*
X173185779Y-117723856D01*
X173162500Y-117725000D01*
X172587500Y-117725000D01*
X172564221Y-117723856D01*
X172541166Y-117720437D01*
X172518557Y-117714773D01*
X172496613Y-117706921D01*
X172475543Y-117696956D01*
X172455552Y-117684974D01*
X172436832Y-117671090D01*
X172419562Y-117655438D01*
X172403910Y-117638168D01*
X172390026Y-117619448D01*
X172378044Y-117599457D01*
X172368079Y-117578387D01*
X172360227Y-117556443D01*
X172354563Y-117533834D01*
X172351144Y-117510779D01*
X172350000Y-117487500D01*
X172350000Y-117012500D01*
X172351144Y-116989221D01*
X172354563Y-116966166D01*
X172360227Y-116943557D01*
X172368079Y-116921613D01*
X172378044Y-116900543D01*
X172390026Y-116880552D01*
X172403910Y-116861832D01*
X172419562Y-116844562D01*
X172436832Y-116828910D01*
X172455552Y-116815026D01*
X172475543Y-116803044D01*
X172496613Y-116793079D01*
X172518557Y-116785227D01*
X172541166Y-116779563D01*
X172564221Y-116776144D01*
X172587500Y-116775000D01*
X173162500Y-116775000D01*
X173185779Y-116776144D01*
X173185779Y-116776144D01*
G37*
D15*
G04 #@! TD*
G04 #@! TO.P,C3,2*
G04 #@! TO.N,GND*
X172875000Y-117250000D03*
D16*
G04 #@! TO.P,Y1,1*
G04 #@! TO.N,Net-(C2-Pad1)*
X173750000Y-112500000D03*
G04 #@! TO.P,Y1,2*
G04 #@! TO.N,Net-(C3-Pad1)*
X173750000Y-115000000D03*
G04 #@! TD*
D17*
G04 #@! TO.N,GND*
X198761593Y-115764379D03*
X172000000Y-113750000D03*
X187750000Y-117664379D03*
G04 #@! TO.N,+BATT*
X188761593Y-118764379D03*
X203011593Y-108264379D03*
G04 #@! TO.N,/UART_TXD*
X192984595Y-115464379D03*
G04 #@! TO.N,/UART_RXD*
X200411593Y-114364379D03*
G04 #@! TO.N,/SWCLK*
X202011593Y-111764379D03*
G04 #@! TO.N,/SWDIO*
X202011593Y-110514379D03*
G04 #@! TO.N,Net-(D1-Pad2)*
X196761593Y-113264379D03*
X198761593Y-118389379D03*
G04 #@! TD*
D18*
G04 #@! TO.N,GND*
X195311593Y-116714379D02*
X194511593Y-116714379D01*
D19*
X197811593Y-116714379D02*
X195311593Y-116714379D01*
X198761593Y-115764379D02*
X197811593Y-116714379D01*
X193511593Y-116714379D02*
X192561593Y-117664379D01*
X193511593Y-116714379D02*
X194511593Y-116714379D01*
X191011593Y-117664379D02*
X192561593Y-117664379D01*
D18*
X199636593Y-116639379D02*
X198761593Y-115764379D01*
X200261593Y-116639379D02*
X199636593Y-116639379D01*
X172875000Y-110250000D02*
X172000000Y-111125000D01*
X172000000Y-116375000D02*
X172875000Y-117250000D01*
X172000000Y-111125000D02*
X172000000Y-113750000D01*
X172000000Y-113750000D02*
X172000000Y-116375000D01*
D19*
X191011593Y-117664379D02*
X187750000Y-117664379D01*
D18*
G04 #@! TO.N,+BATT*
X194511593Y-118764379D02*
X191011593Y-118764379D01*
D19*
X188761593Y-118764379D02*
X191011593Y-118764379D01*
D18*
X203011593Y-108264379D02*
X203011593Y-113014379D01*
X197261593Y-118764379D02*
X194511593Y-118764379D01*
X203011593Y-113014379D02*
X201761593Y-114264379D01*
X201761593Y-114264379D02*
X201761593Y-116764379D01*
X201761593Y-116764379D02*
X201011593Y-117514379D01*
X198511593Y-117514379D02*
X197261593Y-118764379D01*
X201011593Y-117514379D02*
X198511593Y-117514379D01*
G04 #@! TO.N,/UART_TXD*
X191011593Y-115464379D02*
X192984595Y-115464379D01*
G04 #@! TO.N,/UART_RXD*
X191011593Y-114364379D02*
X200411593Y-114364379D01*
G04 #@! TO.N,Net-(IC1-Pad14)*
X193636593Y-113264379D02*
X191011593Y-113264379D01*
G04 #@! TO.N,/SWCLK*
X191011593Y-112164379D02*
X195111593Y-112164379D01*
X195111593Y-112164379D02*
X197511593Y-109764379D01*
X197511593Y-109764379D02*
X200011593Y-109764379D01*
X200011593Y-109764379D02*
X202011593Y-111764379D01*
G04 #@! TO.N,/SWDIO*
X202011593Y-110514379D02*
X200511593Y-109014379D01*
X200511593Y-109014379D02*
X197261593Y-109014379D01*
X192011593Y-111064379D02*
X191011593Y-111064379D01*
X195211593Y-111064379D02*
X192011593Y-111064379D01*
X197261593Y-109014379D02*
X195211593Y-111064379D01*
G04 #@! TO.N,Net-(D1-Pad2)*
X195386593Y-113264379D02*
X196761593Y-113264379D01*
X200261593Y-118389379D02*
X198761593Y-118389379D01*
G04 #@! TO.N,Net-(C2-Pad1)*
X176011593Y-113264379D02*
X177011593Y-113264379D01*
X175664379Y-113264379D02*
X176011593Y-113264379D01*
X174900000Y-112500000D02*
X175664379Y-113264379D01*
X173750000Y-112500000D02*
X174900000Y-112500000D01*
X174625000Y-110250000D02*
X174625000Y-110875000D01*
X173750000Y-111750000D02*
X173750000Y-112500000D01*
X174625000Y-110875000D02*
X173750000Y-111750000D01*
G04 #@! TO.N,Net-(C3-Pad1)*
X175535621Y-114364379D02*
X176011593Y-114364379D01*
X174900000Y-115000000D02*
X175535621Y-114364379D01*
X176011593Y-114364379D02*
X177011593Y-114364379D01*
X173750000Y-115000000D02*
X174900000Y-115000000D01*
X174625000Y-117250000D02*
X174625000Y-116625000D01*
X173750000Y-115750000D02*
X173750000Y-115000000D01*
X174625000Y-116625000D02*
X173750000Y-115750000D01*
G04 #@! TD*
M02*
