G04 #@! TF.GenerationSoftware,KiCad,Pcbnew,5.0.2-bee76a0~70~ubuntu16.04.1*
G04 #@! TF.CreationDate,2019-07-12T12:57:40-07:00*
G04 #@! TF.ProjectId,beacon-pcb,62656163-6f6e-42d7-9063-622e6b696361,rev?*
G04 #@! TF.SameCoordinates,Original*
G04 #@! TF.FileFunction,Soldermask,Top*
G04 #@! TF.FilePolarity,Negative*
%FSLAX46Y46*%
G04 Gerber Fmt 4.6, Leading zero omitted, Abs format (unit mm)*
G04 Created by KiCad (PCBNEW 5.0.2-bee76a0~70~ubuntu16.04.1) date Fri 12 Jul 2019 12:57:40 PM PDT*
%MOMM*%
%LPD*%
G01*
G04 APERTURE LIST*
%ADD10C,0.100000*%
G04 APERTURE END LIST*
D10*
G04 #@! TO.C,dcfurs-logo*
G36*
X108595152Y-111991481D02*
X108415408Y-111936414D01*
X108242938Y-111869635D01*
X108078310Y-111791706D01*
X107922093Y-111703190D01*
X107774855Y-111604651D01*
X107637166Y-111496652D01*
X107509592Y-111379756D01*
X107392704Y-111254526D01*
X107287069Y-111121525D01*
X107193256Y-110981316D01*
X107111834Y-110834462D01*
X107043371Y-110681526D01*
X106988435Y-110523072D01*
X106947596Y-110359663D01*
X106891165Y-110166063D01*
X106806046Y-110063327D01*
X106717420Y-109953928D01*
X106737677Y-109853197D01*
X107745801Y-109172665D01*
X107626395Y-109068064D01*
X107535456Y-108944696D01*
X107477548Y-108808749D01*
X107457232Y-108666412D01*
X107481810Y-108498518D01*
X107550548Y-108348465D01*
X107655952Y-108221712D01*
X107790528Y-108123715D01*
X107946780Y-108059932D01*
X108117215Y-108035820D01*
X108294338Y-108056837D01*
X108449677Y-108114428D01*
X108578326Y-108197848D01*
X108679229Y-108301895D01*
X108751332Y-108421367D01*
X108793582Y-108551061D01*
X108804923Y-108685776D01*
X108784301Y-108820308D01*
X108730661Y-108949457D01*
X108642951Y-109068019D01*
X108520114Y-109170792D01*
X108375992Y-109237041D01*
X108202448Y-109275337D01*
X108029987Y-109281741D01*
X107889114Y-109252311D01*
X107745801Y-109172665D01*
X106737677Y-109853197D01*
X106852681Y-109779379D01*
X110152373Y-109255362D01*
X110009599Y-109185823D01*
X109884860Y-109080490D01*
X109786022Y-108949768D01*
X109720950Y-108804059D01*
X109697512Y-108653768D01*
X109722537Y-108486912D01*
X109792568Y-108338583D01*
X109900039Y-108214041D01*
X110037385Y-108118548D01*
X110197041Y-108057362D01*
X110371441Y-108035744D01*
X110553019Y-108058954D01*
X110703552Y-108114868D01*
X110825939Y-108194043D01*
X110920618Y-108291833D01*
X110988023Y-108403594D01*
X111028590Y-108524683D01*
X111042755Y-108650455D01*
X111030953Y-108776265D01*
X110993620Y-108897469D01*
X110931192Y-109009422D01*
X110844105Y-109107480D01*
X110732794Y-109187000D01*
X110597694Y-109243335D01*
X110439242Y-109271843D01*
X110276372Y-109273036D01*
X110152373Y-109255363D01*
X110152373Y-109255362D01*
X106852681Y-109779379D01*
X107048292Y-109750718D01*
X107213705Y-109771258D01*
X107328360Y-109824849D01*
X107383376Y-109899452D01*
X107369874Y-109983023D01*
X107278972Y-110063522D01*
X107198781Y-110136878D01*
X107200466Y-110266227D01*
X107284923Y-110520443D01*
X107353171Y-110681503D01*
X107434295Y-110833181D01*
X107527439Y-110975154D01*
X107631750Y-111107101D01*
X107746372Y-111228698D01*
X107870451Y-111339624D01*
X108003133Y-111439555D01*
X108143562Y-111528168D01*
X108290884Y-111605142D01*
X108444244Y-111670153D01*
X108602788Y-111722879D01*
X108765661Y-111762998D01*
X108932009Y-111790186D01*
X109100976Y-111804121D01*
X109271709Y-111804481D01*
X109443351Y-111790942D01*
X109615050Y-111763183D01*
X109785950Y-111720881D01*
X109955196Y-111663712D01*
X110121935Y-111591356D01*
X110275958Y-111504807D01*
X110425793Y-111397636D01*
X110569112Y-111272708D01*
X110703588Y-111132887D01*
X110826896Y-110981038D01*
X110936709Y-110820027D01*
X111030700Y-110652719D01*
X111106542Y-110481979D01*
X111161910Y-110310671D01*
X111205846Y-110141644D01*
X111086707Y-110042183D01*
X110994888Y-109946546D01*
X111008785Y-109865708D01*
X111078854Y-109799539D01*
X111193385Y-109750084D01*
X111351737Y-109731018D01*
X111489455Y-109754819D01*
X111593061Y-109810365D01*
X111649075Y-109886534D01*
X111644018Y-109972202D01*
X111564412Y-110056248D01*
X111475512Y-110213342D01*
X111453803Y-110360612D01*
X111397246Y-110556792D01*
X111318697Y-110763541D01*
X111231012Y-110942518D01*
X111139034Y-111085931D01*
X111032797Y-111223071D01*
X110913445Y-111353025D01*
X110782127Y-111474885D01*
X110639990Y-111587738D01*
X110488179Y-111690675D01*
X110327843Y-111782786D01*
X110160127Y-111863158D01*
X109986180Y-111930882D01*
X109823985Y-111979026D01*
X109650662Y-112015919D01*
X109470104Y-112041389D01*
X109286208Y-112055269D01*
X109102869Y-112057388D01*
X108923983Y-112047576D01*
X108753445Y-112025663D01*
X108595152Y-111991481D01*
X108595152Y-111991481D01*
G37*
G36*
X195100270Y-118142844D02*
X195137957Y-118154277D01*
X195172696Y-118172845D01*
X195203141Y-118197831D01*
X195228127Y-118228276D01*
X195246695Y-118263015D01*
X195258128Y-118300702D01*
X195262593Y-118346040D01*
X195262593Y-119182718D01*
X195258128Y-119228056D01*
X195246695Y-119265743D01*
X195228127Y-119300482D01*
X195203141Y-119330927D01*
X195172696Y-119355913D01*
X195137957Y-119374481D01*
X195100270Y-119385914D01*
X195054932Y-119390379D01*
X193968254Y-119390379D01*
X193922916Y-119385914D01*
X193885229Y-119374481D01*
X193850490Y-119355913D01*
X193820045Y-119330927D01*
X193795059Y-119300482D01*
X193776491Y-119265743D01*
X193765058Y-119228056D01*
X193760593Y-119182718D01*
X193760593Y-118346040D01*
X193765058Y-118300702D01*
X193776491Y-118263015D01*
X193795059Y-118228276D01*
X193820045Y-118197831D01*
X193850490Y-118172845D01*
X193885229Y-118154277D01*
X193922916Y-118142844D01*
X193968254Y-118138379D01*
X195054932Y-118138379D01*
X195100270Y-118142844D01*
X195100270Y-118142844D01*
G37*
G36*
X177812593Y-119165379D02*
X176210593Y-119165379D01*
X176210593Y-118363379D01*
X177812593Y-118363379D01*
X177812593Y-119165379D01*
X177812593Y-119165379D01*
G37*
G36*
X191812593Y-119165379D02*
X190210593Y-119165379D01*
X190210593Y-118363379D01*
X191812593Y-118363379D01*
X191812593Y-119165379D01*
X191812593Y-119165379D01*
G37*
G36*
X200626092Y-117817824D02*
X200663586Y-117829198D01*
X200698150Y-117847673D01*
X200728440Y-117872532D01*
X200753299Y-117902822D01*
X200771774Y-117937386D01*
X200783148Y-117974880D01*
X200787593Y-118020017D01*
X200787593Y-118758741D01*
X200783148Y-118803878D01*
X200771774Y-118841372D01*
X200753299Y-118875936D01*
X200728440Y-118906226D01*
X200698150Y-118931085D01*
X200663586Y-118949560D01*
X200626092Y-118960934D01*
X200580955Y-118965379D01*
X199942231Y-118965379D01*
X199897094Y-118960934D01*
X199859600Y-118949560D01*
X199825036Y-118931085D01*
X199794746Y-118906226D01*
X199769887Y-118875936D01*
X199751412Y-118841372D01*
X199740038Y-118803878D01*
X199735593Y-118758741D01*
X199735593Y-118020017D01*
X199740038Y-117974880D01*
X199751412Y-117937386D01*
X199769887Y-117902822D01*
X199794746Y-117872532D01*
X199825036Y-117847673D01*
X199859600Y-117829198D01*
X199897094Y-117817824D01*
X199942231Y-117813379D01*
X200580955Y-117813379D01*
X200626092Y-117817824D01*
X200626092Y-117817824D01*
G37*
G36*
X191812593Y-118065379D02*
X190210593Y-118065379D01*
X190210593Y-117263379D01*
X191812593Y-117263379D01*
X191812593Y-118065379D01*
X191812593Y-118065379D01*
G37*
G36*
X177812593Y-118065379D02*
X176210593Y-118065379D01*
X176210593Y-117263379D01*
X177812593Y-117263379D01*
X177812593Y-118065379D01*
X177812593Y-118065379D01*
G37*
G36*
X175039499Y-116728445D02*
X175076993Y-116739819D01*
X175111557Y-116758294D01*
X175141847Y-116783153D01*
X175166706Y-116813443D01*
X175185181Y-116848007D01*
X175196555Y-116885501D01*
X175201000Y-116930638D01*
X175201000Y-117569362D01*
X175196555Y-117614499D01*
X175185181Y-117651993D01*
X175166706Y-117686557D01*
X175141847Y-117716847D01*
X175111557Y-117741706D01*
X175076993Y-117760181D01*
X175039499Y-117771555D01*
X174994362Y-117776000D01*
X174255638Y-117776000D01*
X174210501Y-117771555D01*
X174173007Y-117760181D01*
X174138443Y-117741706D01*
X174108153Y-117716847D01*
X174083294Y-117686557D01*
X174064819Y-117651993D01*
X174053445Y-117614499D01*
X174049000Y-117569362D01*
X174049000Y-116930638D01*
X174053445Y-116885501D01*
X174064819Y-116848007D01*
X174083294Y-116813443D01*
X174108153Y-116783153D01*
X174138443Y-116758294D01*
X174173007Y-116739819D01*
X174210501Y-116728445D01*
X174255638Y-116724000D01*
X174994362Y-116724000D01*
X175039499Y-116728445D01*
X175039499Y-116728445D01*
G37*
G36*
X173289499Y-116728445D02*
X173326993Y-116739819D01*
X173361557Y-116758294D01*
X173391847Y-116783153D01*
X173416706Y-116813443D01*
X173435181Y-116848007D01*
X173446555Y-116885501D01*
X173451000Y-116930638D01*
X173451000Y-117569362D01*
X173446555Y-117614499D01*
X173435181Y-117651993D01*
X173416706Y-117686557D01*
X173391847Y-117716847D01*
X173361557Y-117741706D01*
X173326993Y-117760181D01*
X173289499Y-117771555D01*
X173244362Y-117776000D01*
X172505638Y-117776000D01*
X172460501Y-117771555D01*
X172423007Y-117760181D01*
X172388443Y-117741706D01*
X172358153Y-117716847D01*
X172333294Y-117686557D01*
X172314819Y-117651993D01*
X172303445Y-117614499D01*
X172299000Y-117569362D01*
X172299000Y-116930638D01*
X172303445Y-116885501D01*
X172314819Y-116848007D01*
X172333294Y-116813443D01*
X172358153Y-116783153D01*
X172388443Y-116758294D01*
X172423007Y-116739819D01*
X172460501Y-116728445D01*
X172505638Y-116724000D01*
X173244362Y-116724000D01*
X173289499Y-116728445D01*
X173289499Y-116728445D01*
G37*
G36*
X195100270Y-116092844D02*
X195137957Y-116104277D01*
X195172696Y-116122845D01*
X195203141Y-116147831D01*
X195228127Y-116178276D01*
X195246695Y-116213015D01*
X195258128Y-116250702D01*
X195262593Y-116296040D01*
X195262593Y-117132718D01*
X195258128Y-117178056D01*
X195246695Y-117215743D01*
X195228127Y-117250482D01*
X195203141Y-117280927D01*
X195172696Y-117305913D01*
X195137957Y-117324481D01*
X195100270Y-117335914D01*
X195054932Y-117340379D01*
X193968254Y-117340379D01*
X193922916Y-117335914D01*
X193885229Y-117324481D01*
X193850490Y-117305913D01*
X193820045Y-117280927D01*
X193795059Y-117250482D01*
X193776491Y-117215743D01*
X193765058Y-117178056D01*
X193760593Y-117132718D01*
X193760593Y-116296040D01*
X193765058Y-116250702D01*
X193776491Y-116213015D01*
X193795059Y-116178276D01*
X193820045Y-116147831D01*
X193850490Y-116122845D01*
X193885229Y-116104277D01*
X193922916Y-116092844D01*
X193968254Y-116088379D01*
X195054932Y-116088379D01*
X195100270Y-116092844D01*
X195100270Y-116092844D01*
G37*
G36*
X200626092Y-116067824D02*
X200663586Y-116079198D01*
X200698150Y-116097673D01*
X200728440Y-116122532D01*
X200753299Y-116152822D01*
X200771774Y-116187386D01*
X200783148Y-116224880D01*
X200787593Y-116270017D01*
X200787593Y-117008741D01*
X200783148Y-117053878D01*
X200771774Y-117091372D01*
X200753299Y-117125936D01*
X200728440Y-117156226D01*
X200698150Y-117181085D01*
X200663586Y-117199560D01*
X200626092Y-117210934D01*
X200580955Y-117215379D01*
X199942231Y-117215379D01*
X199897094Y-117210934D01*
X199859600Y-117199560D01*
X199825036Y-117181085D01*
X199794746Y-117156226D01*
X199769887Y-117125936D01*
X199751412Y-117091372D01*
X199740038Y-117053878D01*
X199735593Y-117008741D01*
X199735593Y-116270017D01*
X199740038Y-116224880D01*
X199751412Y-116187386D01*
X199769887Y-116152822D01*
X199794746Y-116122532D01*
X199825036Y-116097673D01*
X199859600Y-116079198D01*
X199897094Y-116067824D01*
X199942231Y-116063379D01*
X200580955Y-116063379D01*
X200626092Y-116067824D01*
X200626092Y-116067824D01*
G37*
G36*
X191812593Y-116965379D02*
X190210593Y-116965379D01*
X190210593Y-116163379D01*
X191812593Y-116163379D01*
X191812593Y-116965379D01*
X191812593Y-116965379D01*
G37*
G36*
X177812593Y-116965379D02*
X176210593Y-116965379D01*
X176210593Y-116163379D01*
X177812593Y-116163379D01*
X177812593Y-116965379D01*
X177812593Y-116965379D01*
G37*
G36*
X191812593Y-115865379D02*
X190210593Y-115865379D01*
X190210593Y-115063379D01*
X191812593Y-115063379D01*
X191812593Y-115865379D01*
X191812593Y-115865379D01*
G37*
G36*
X177812593Y-115865379D02*
X176210593Y-115865379D01*
X176210593Y-115063379D01*
X177812593Y-115063379D01*
X177812593Y-115865379D01*
X177812593Y-115865379D01*
G37*
G36*
X174701000Y-115551000D02*
X172799000Y-115551000D01*
X172799000Y-114449000D01*
X174701000Y-114449000D01*
X174701000Y-115551000D01*
X174701000Y-115551000D01*
G37*
G36*
X203904943Y-113779073D02*
X204004363Y-113820254D01*
X204093842Y-113880042D01*
X204169930Y-113956130D01*
X204229718Y-114045609D01*
X204270899Y-114145029D01*
X204291893Y-114250573D01*
X204291893Y-114358185D01*
X204270899Y-114463729D01*
X204229718Y-114563149D01*
X204169930Y-114652628D01*
X204093842Y-114728716D01*
X204004363Y-114788504D01*
X203904943Y-114829685D01*
X203799399Y-114850679D01*
X203691787Y-114850679D01*
X203586243Y-114829685D01*
X203486823Y-114788504D01*
X203397344Y-114728716D01*
X203321256Y-114652628D01*
X203261468Y-114563149D01*
X203220287Y-114463729D01*
X203199293Y-114358185D01*
X203199293Y-114250573D01*
X203220287Y-114145029D01*
X203261468Y-114045609D01*
X203321256Y-113956130D01*
X203397344Y-113880042D01*
X203486823Y-113820254D01*
X203586243Y-113779073D01*
X203691787Y-113758079D01*
X203799399Y-113758079D01*
X203904943Y-113779073D01*
X203904943Y-113779073D01*
G37*
G36*
X205936943Y-113779073D02*
X206036363Y-113820254D01*
X206125842Y-113880042D01*
X206201930Y-113956130D01*
X206261718Y-114045609D01*
X206302899Y-114145029D01*
X206323893Y-114250573D01*
X206323893Y-114358185D01*
X206302899Y-114463729D01*
X206261718Y-114563149D01*
X206201930Y-114652628D01*
X206125842Y-114728716D01*
X206036363Y-114788504D01*
X205936943Y-114829685D01*
X205831399Y-114850679D01*
X205723787Y-114850679D01*
X205618243Y-114829685D01*
X205518823Y-114788504D01*
X205429344Y-114728716D01*
X205353256Y-114652628D01*
X205293468Y-114563149D01*
X205252287Y-114463729D01*
X205231293Y-114358185D01*
X205231293Y-114250573D01*
X205252287Y-114145029D01*
X205293468Y-114045609D01*
X205353256Y-113956130D01*
X205429344Y-113880042D01*
X205518823Y-113820254D01*
X205618243Y-113779073D01*
X205723787Y-113758079D01*
X205831399Y-113758079D01*
X205936943Y-113779073D01*
X205936943Y-113779073D01*
G37*
G36*
X191812593Y-114765379D02*
X190210593Y-114765379D01*
X190210593Y-113963379D01*
X191812593Y-113963379D01*
X191812593Y-114765379D01*
X191812593Y-114765379D01*
G37*
G36*
X177812593Y-114765379D02*
X176210593Y-114765379D01*
X176210593Y-113963379D01*
X177812593Y-113963379D01*
X177812593Y-114765379D01*
X177812593Y-114765379D01*
G37*
G36*
X194051092Y-112742824D02*
X194088586Y-112754198D01*
X194123150Y-112772673D01*
X194153440Y-112797532D01*
X194178299Y-112827822D01*
X194196774Y-112862386D01*
X194208148Y-112899880D01*
X194212593Y-112945017D01*
X194212593Y-113583741D01*
X194208148Y-113628878D01*
X194196774Y-113666372D01*
X194178299Y-113700936D01*
X194153440Y-113731226D01*
X194123150Y-113756085D01*
X194088586Y-113774560D01*
X194051092Y-113785934D01*
X194005955Y-113790379D01*
X193267231Y-113790379D01*
X193222094Y-113785934D01*
X193184600Y-113774560D01*
X193150036Y-113756085D01*
X193119746Y-113731226D01*
X193094887Y-113700936D01*
X193076412Y-113666372D01*
X193065038Y-113628878D01*
X193060593Y-113583741D01*
X193060593Y-112945017D01*
X193065038Y-112899880D01*
X193076412Y-112862386D01*
X193094887Y-112827822D01*
X193119746Y-112797532D01*
X193150036Y-112772673D01*
X193184600Y-112754198D01*
X193222094Y-112742824D01*
X193267231Y-112738379D01*
X194005955Y-112738379D01*
X194051092Y-112742824D01*
X194051092Y-112742824D01*
G37*
G36*
X195801092Y-112742824D02*
X195838586Y-112754198D01*
X195873150Y-112772673D01*
X195903440Y-112797532D01*
X195928299Y-112827822D01*
X195946774Y-112862386D01*
X195958148Y-112899880D01*
X195962593Y-112945017D01*
X195962593Y-113583741D01*
X195958148Y-113628878D01*
X195946774Y-113666372D01*
X195928299Y-113700936D01*
X195903440Y-113731226D01*
X195873150Y-113756085D01*
X195838586Y-113774560D01*
X195801092Y-113785934D01*
X195755955Y-113790379D01*
X195017231Y-113790379D01*
X194972094Y-113785934D01*
X194934600Y-113774560D01*
X194900036Y-113756085D01*
X194869746Y-113731226D01*
X194844887Y-113700936D01*
X194826412Y-113666372D01*
X194815038Y-113628878D01*
X194810593Y-113583741D01*
X194810593Y-112945017D01*
X194815038Y-112899880D01*
X194826412Y-112862386D01*
X194844887Y-112827822D01*
X194869746Y-112797532D01*
X194900036Y-112772673D01*
X194934600Y-112754198D01*
X194972094Y-112742824D01*
X195017231Y-112738379D01*
X195755955Y-112738379D01*
X195801092Y-112742824D01*
X195801092Y-112742824D01*
G37*
G36*
X177812593Y-113665379D02*
X176210593Y-113665379D01*
X176210593Y-112863379D01*
X177812593Y-112863379D01*
X177812593Y-113665379D01*
X177812593Y-113665379D01*
G37*
G36*
X191812593Y-113665379D02*
X190210593Y-113665379D01*
X190210593Y-112863379D01*
X191812593Y-112863379D01*
X191812593Y-113665379D01*
X191812593Y-113665379D01*
G37*
G36*
X97061843Y-110502221D02*
X97146915Y-110519143D01*
X97217328Y-110548309D01*
X97387321Y-110618722D01*
X97603685Y-110763292D01*
X97787679Y-110947286D01*
X97932249Y-111163650D01*
X98031828Y-111404057D01*
X98082593Y-111659269D01*
X98082593Y-111919487D01*
X98031828Y-112174699D01*
X97932249Y-112415106D01*
X97787679Y-112631470D01*
X97603685Y-112815464D01*
X97387321Y-112960034D01*
X97287504Y-113001379D01*
X97146915Y-113059613D01*
X97061843Y-113076535D01*
X96891702Y-113110378D01*
X96631484Y-113110378D01*
X96461343Y-113076535D01*
X96376271Y-113059613D01*
X96235682Y-113001379D01*
X96135865Y-112960034D01*
X95919501Y-112815464D01*
X95735507Y-112631470D01*
X95590937Y-112415106D01*
X95491358Y-112174699D01*
X95440593Y-111919487D01*
X95440593Y-111659269D01*
X95491358Y-111404057D01*
X95590937Y-111163650D01*
X95735507Y-110947286D01*
X95919501Y-110763292D01*
X96135865Y-110618722D01*
X96305858Y-110548309D01*
X96376271Y-110519143D01*
X96461343Y-110502221D01*
X96631484Y-110468378D01*
X96891702Y-110468378D01*
X97061843Y-110502221D01*
X97061843Y-110502221D01*
G37*
G36*
X199061843Y-110502221D02*
X199146915Y-110519143D01*
X199217328Y-110548309D01*
X199387321Y-110618722D01*
X199603685Y-110763292D01*
X199787679Y-110947286D01*
X199932249Y-111163650D01*
X200031828Y-111404057D01*
X200082593Y-111659269D01*
X200082593Y-111919487D01*
X200031828Y-112174699D01*
X199932249Y-112415106D01*
X199787679Y-112631470D01*
X199603685Y-112815464D01*
X199387321Y-112960034D01*
X199287504Y-113001379D01*
X199146915Y-113059613D01*
X199061843Y-113076535D01*
X198891702Y-113110378D01*
X198631484Y-113110378D01*
X198461343Y-113076535D01*
X198376271Y-113059613D01*
X198235682Y-113001379D01*
X198135865Y-112960034D01*
X197919501Y-112815464D01*
X197735507Y-112631470D01*
X197590937Y-112415106D01*
X197491358Y-112174699D01*
X197440593Y-111919487D01*
X197440593Y-111659269D01*
X197491358Y-111404057D01*
X197590937Y-111163650D01*
X197735507Y-110947286D01*
X197919501Y-110763292D01*
X198135865Y-110618722D01*
X198305858Y-110548309D01*
X198376271Y-110519143D01*
X198461343Y-110502221D01*
X198631484Y-110468378D01*
X198891702Y-110468378D01*
X199061843Y-110502221D01*
X199061843Y-110502221D01*
G37*
G36*
X174701000Y-113051000D02*
X172799000Y-113051000D01*
X172799000Y-111949000D01*
X174701000Y-111949000D01*
X174701000Y-113051000D01*
X174701000Y-113051000D01*
G37*
G36*
X177812593Y-112565379D02*
X176210593Y-112565379D01*
X176210593Y-111763379D01*
X177812593Y-111763379D01*
X177812593Y-112565379D01*
X177812593Y-112565379D01*
G37*
G36*
X191812593Y-112565379D02*
X190210593Y-112565379D01*
X190210593Y-111763379D01*
X191812593Y-111763379D01*
X191812593Y-112565379D01*
X191812593Y-112565379D01*
G37*
G36*
X191812593Y-111465379D02*
X190210593Y-111465379D01*
X190210593Y-110663379D01*
X191812593Y-110663379D01*
X191812593Y-111465379D01*
X191812593Y-111465379D01*
G37*
G36*
X177812593Y-111465379D02*
X176210593Y-111465379D01*
X176210593Y-110663379D01*
X177812593Y-110663379D01*
X177812593Y-111465379D01*
X177812593Y-111465379D01*
G37*
G36*
X173289499Y-109728445D02*
X173326993Y-109739819D01*
X173361557Y-109758294D01*
X173391847Y-109783153D01*
X173416706Y-109813443D01*
X173435181Y-109848007D01*
X173446555Y-109885501D01*
X173451000Y-109930638D01*
X173451000Y-110569362D01*
X173446555Y-110614499D01*
X173435181Y-110651993D01*
X173416706Y-110686557D01*
X173391847Y-110716847D01*
X173361557Y-110741706D01*
X173326993Y-110760181D01*
X173289499Y-110771555D01*
X173244362Y-110776000D01*
X172505638Y-110776000D01*
X172460501Y-110771555D01*
X172423007Y-110760181D01*
X172388443Y-110741706D01*
X172358153Y-110716847D01*
X172333294Y-110686557D01*
X172314819Y-110651993D01*
X172303445Y-110614499D01*
X172299000Y-110569362D01*
X172299000Y-109930638D01*
X172303445Y-109885501D01*
X172314819Y-109848007D01*
X172333294Y-109813443D01*
X172358153Y-109783153D01*
X172388443Y-109758294D01*
X172423007Y-109739819D01*
X172460501Y-109728445D01*
X172505638Y-109724000D01*
X173244362Y-109724000D01*
X173289499Y-109728445D01*
X173289499Y-109728445D01*
G37*
G36*
X175039499Y-109728445D02*
X175076993Y-109739819D01*
X175111557Y-109758294D01*
X175141847Y-109783153D01*
X175166706Y-109813443D01*
X175185181Y-109848007D01*
X175196555Y-109885501D01*
X175201000Y-109930638D01*
X175201000Y-110569362D01*
X175196555Y-110614499D01*
X175185181Y-110651993D01*
X175166706Y-110686557D01*
X175141847Y-110716847D01*
X175111557Y-110741706D01*
X175076993Y-110760181D01*
X175039499Y-110771555D01*
X174994362Y-110776000D01*
X174255638Y-110776000D01*
X174210501Y-110771555D01*
X174173007Y-110760181D01*
X174138443Y-110741706D01*
X174108153Y-110716847D01*
X174083294Y-110686557D01*
X174064819Y-110651993D01*
X174053445Y-110614499D01*
X174049000Y-110569362D01*
X174049000Y-109930638D01*
X174053445Y-109885501D01*
X174064819Y-109848007D01*
X174083294Y-109813443D01*
X174108153Y-109783153D01*
X174138443Y-109758294D01*
X174173007Y-109739819D01*
X174210501Y-109728445D01*
X174255638Y-109724000D01*
X174994362Y-109724000D01*
X175039499Y-109728445D01*
X175039499Y-109728445D01*
G37*
G36*
X204920943Y-108699073D02*
X205020363Y-108740254D01*
X205109842Y-108800042D01*
X205185930Y-108876130D01*
X205245718Y-108965609D01*
X205286899Y-109065029D01*
X205307893Y-109170573D01*
X205307893Y-109278185D01*
X205286899Y-109383729D01*
X205245718Y-109483149D01*
X205185930Y-109572628D01*
X205109842Y-109648716D01*
X205109839Y-109648718D01*
X205020363Y-109708504D01*
X204920943Y-109749685D01*
X204815399Y-109770679D01*
X204707787Y-109770679D01*
X204602243Y-109749685D01*
X204502823Y-109708504D01*
X204413347Y-109648718D01*
X204413344Y-109648716D01*
X204337256Y-109572628D01*
X204277468Y-109483149D01*
X204236287Y-109383729D01*
X204215293Y-109278185D01*
X204215293Y-109170573D01*
X204236287Y-109065029D01*
X204277468Y-108965609D01*
X204337256Y-108876130D01*
X204413344Y-108800042D01*
X204502823Y-108740254D01*
X204602243Y-108699073D01*
X204707787Y-108678079D01*
X204815399Y-108678079D01*
X204920943Y-108699073D01*
X204920943Y-108699073D01*
G37*
M02*
