<?xml version="1.0" encoding="UTF-8" standalone="no"?>
<!-- Created with Inkscape (http://www.inkscape.org/) -->

<svg
   xmlns:dc="http://purl.org/dc/elements/1.1/"
   xmlns:cc="http://creativecommons.org/ns#"
   xmlns:rdf="http://www.w3.org/1999/02/22-rdf-syntax-ns#"
   xmlns:svg="http://www.w3.org/2000/svg"
   xmlns="http://www.w3.org/2000/svg"
   xmlns:sodipodi="http://sodipodi.sourceforge.net/DTD/sodipodi-0.dtd"
   xmlns:inkscape="http://www.inkscape.org/namespaces/inkscape"
   id="svg3671"
   version="1.1"
   inkscape:version="0.91 r13725"
   width="81.900002"
   height="81.900002"
   viewBox="0 0 81.900002 81.900002"
   sodipodi:docname="dcfurs-logo.svg"
   inkscape:label="SilkS">
  <metadata
     id="metadata4206">
    <rdf:RDF>
      <cc:Work
         rdf:about="">
        <dc:format>image/svg+xml</dc:format>
        <dc:type
           rdf:resource="http://purl.org/dc/dcmitype/StillImage" />
      </cc:Work>
    </rdf:RDF>
  </metadata>
  <defs
     id="defs3675" />
  <sodipodi:namedview
     pagecolor="#ffffff"
     bordercolor="#666666"
     borderopacity="1"
     objecttolerance="10"
     gridtolerance="10"
     guidetolerance="10"
     inkscape:pageopacity="0"
     inkscape:pageshadow="2"
     inkscape:window-width="1920"
     inkscape:window-height="1016"
     id="namedview3673"
     showgrid="false"
     inkscape:zoom="16"
     inkscape:cx="36.18661"
     inkscape:cy="47.470096"
     inkscape:window-x="0"
     inkscape:window-y="27"
     inkscape:window-maximized="1"
     inkscape:current-layer="layer3" />
  <g
     inkscape:groupmode="layer"
     id="layer1"
     inkscape:label="SilkS"
     style="display:inline">
    <path
       style="fill:#000000"
       d="M 36.900001,76.659473 C 30.6798,75.950723 24.684,73.549773 19.500232,69.691936 17.460907,68.174238 14.085764,64.799094 12.568067,62.75977 9.1664604,58.189039 6.965532,53.163374 5.8939974,47.520001 c -0.3326622,-1.752006 -0.393041,-2.705985 -0.393041,-6.21 0,-3.521138 0.059591,-4.454163 0.3986447,-6.241651 C 7.309089,27.637543 10.578622,21.414473 15.820417,16.185549 20.139104,11.877468 24.909493,8.9913735 30.525036,7.289226 36.577012,5.4547896 43.348406,5.2716272 49.500001,6.7759637 57.258457,8.6732484 64.391175,13.399332 69.292019,19.89 c 9.14992,12.118135 9.596534,28.608523 1.116776,41.234902 -5.853377,8.715692 -15.226048,14.400389 -25.6267,15.543065 -2.007974,0.220608 -5.908324,0.216405 -7.882094,-0.0085 z M 21.882734,67.339296 c 2.183081,-0.991534 2.870174,-4.095909 1.301886,-5.882091 l -0.530111,-0.603763 9.212514,-4.606952 c 5.066883,-2.533824 9.167429,-4.652038 9.112323,-4.707143 -0.0551,-0.0551 -1.296457,-0.770958 -2.758563,-1.590786 l -2.658371,-1.490594 -7.517362,3.759512 -7.51736,3.759515 -0.294899,-0.583497 c -0.965045,-1.90946 -2.886944,-2.533727 -4.639135,-1.506876 -1.920113,1.125263 -2.335685,4.337512 -0.780065,6.029669 0.516147,0.561449 1.685231,1.094765 2.410786,1.099759 0.770126,0.0053 0.838404,0.186325 0.418936,1.110728 -0.948317,2.089852 -0.04251,4.592853 1.914622,5.290668 0.935269,0.333469 1.457156,0.315925 2.324799,-0.07815 z m 40.70055,-0.211284 c 2.130049,-0.807054 2.879515,-4.243414 1.413835,-6.482538 l -0.421893,-0.644528 0.768328,0.252945 c 1.41912,0.467192 3.034026,-0.330439 3.718109,-1.836443 1.089264,-2.39801 -0.930094,-5.111773 -3.482836,-4.68049 -0.766773,0.129545 -2.017341,1.09973 -2.21327,1.717046 -0.0604,0.190297 -0.196232,0.345997 -0.301854,0.345997 -0.298759,0 -16.315409,-9.075767 -16.238985,-9.201751 0.03729,-0.06146 0.321273,-0.162446 0.631084,-0.22441 0.439257,-0.08785 0.799329,0.02036 1.63526,0.491449 l 1.07197,0.604107 8.876294,-4.474698 c 4.881962,-2.461084 8.917997,-4.474697 8.968971,-4.474697 0.05097,0 0.143129,0.201015 0.204792,0.446699 0.1463,0.582908 1.096949,1.657533 1.777745,2.009588 0.72507,0.374947 2.174528,0.344065 2.865951,-0.06106 1.316061,-0.771125 2.106677,-2.477768 1.872201,-4.041371 -0.278145,-1.854803 -1.918002,-3.336633 -3.523071,-3.183564 l -0.704254,0.06716 0.335592,-0.543724 c 1.616019,-2.61826 0.0258,-6.033724 -2.809265,-6.033724 -2.585994,0 -4.159233,3.11756 -2.864157,5.675664 0.244107,0.482172 0.426357,0.891852 0.405,0.910399 -0.2345,0.203654 -8.04883,4.003468 -8.04883,3.913843 0,-0.06691 0.196508,-0.614016 0.436686,-1.215783 1.789643,-4.483982 1.087027,-10.698423 -1.667499,-14.748545 l -0.349864,-0.514422 0.50096,-1.375579 c 0.275528,-0.756567 0.602419,-2.007205 0.726424,-2.779193 0.276639,-1.77074 0.160802,-4.251941 -0.434737,-5.628758 -0.705199,0.03466 -0.843692,0.05121 -1.225813,0.105928 -1.841793,0.263764 -3.293921,0.946703 -5.064619,2.732091 l -1.40846,1.420146 -0.952636,-0.356427 C 43.979855,14.159287 40.040011,14.110181 36.641969,15.18926 L 35.32634,15.60705 35.028625,15.103057 C 34.509849,14.22484 32.96825,12.655656 32.037459,12.05837 30.953393,11.362726 29.227859,10.8 28.178813,10.8 l -0.769114,0 -0.204849,1.020021 c -0.487624,2.42806 -0.0967,5.866218 0.931303,8.190713 l 0.433329,0.979828 -0.425484,0.529718 c -0.717138,0.892827 -1.835611,3.367673 -2.290992,5.069283 -0.543135,2.029518 -0.636886,5.377025 -0.207592,7.412269 0.154509,0.732508 0.2565,1.356256 0.226647,1.386108 -0.04647,0.04647 -6.050227,-3.266106 -6.2111,-3.426979 -0.03175,-0.03175 0.122659,-0.403787 0.343123,-0.826756 0.882132,-1.692407 0.573695,-3.732257 -0.744399,-4.923076 C 16.939437,24.114925 13.62,25.852153 13.62,29.162661 c 0,0.768825 0.116817,1.234064 0.467329,1.861198 l 0.467329,0.836142 -0.740499,0 c -2.221657,0 -3.9478636,2.363632 -3.385032,4.635 0.581045,2.344876 2.693316,3.538838 4.744467,2.681813 0.543157,-0.226946 1.421028,-1.093858 1.837328,-1.814395 0.159774,-0.276537 2.631973,1.069238 21.150001,11.513294 11.532992,6.504539 21.038571,11.890494 21.123508,11.96879 0.08536,0.07869 0.06501,0.41328 -0.0455,0.748147 -0.715541,2.168111 0.02661,4.632838 1.633407,5.424635 0.706439,0.34812 1.029258,0.369012 1.710946,0.110727 z"
       id="path3681"
       inkscape:connector-curvature="0"
       sodipodi:nodetypes="ssssssssssssssscssscccssssssssscssssscsscssssssscssscssscsccsscsscssscsscssscssssscsssssccss" />
  </g>
  <g
     inkscape:groupmode="layer"
     id="layer3"
     inkscape:label="Cu">
    <path
       sodipodi:type="inkscape:offset"
       inkscape:radius="0.56880116"
       inkscape:original="M 47.203125 22.341797 C 45.681822 22.627229 44.460938 23.863617 44.460938 25.408203 C 44.460938 26.666204 45.503263 28.046703 46.761719 28.453125 C 47.029874 28.539745 47.684348 28.575866 48.214844 28.535156 C 51.943382 28.249008 52.404777 23.333881 48.791016 22.396484 C 48.251708 22.25659 47.710226 22.246653 47.203125 22.341797 z M 35.808594 22.351562 C 34.321254 22.659551 33.119141 23.920537 33.119141 25.470703 C 33.119141 26.681068 34.009573 27.888241 35.306641 28.4375 C 36.08219 28.765918 37.695214 28.557973 38.5 28.025391 C 40.874882 26.453768 40.197694 23.11128 37.357422 22.386719 C 36.831922 22.252663 36.304374 22.2489 35.808594 22.351562 z M 53.199219 30.896484 C 52.849242 30.835072 52.446767 30.845144 52.03125 30.957031 C 51.610093 31.070438 51.218721 31.316758 51.097656 31.542969 C 50.914263 31.885641 50.962082 31.992996 51.492188 32.435547 L 52.095703 32.939453 L 51.873047 33.794922 C 51.199499 36.386135 48.966393 39.13414 46.607422 40.277344 C 41.032639 42.978989 34.324275 40.445211 32.248047 34.855469 C 31.609529 33.136423 31.60517 32.888779 32.216797 32.542969 C 33.335137 31.910665 32.63542 30.960938 31.050781 30.960938 C 29.490361 30.960938 28.826819 31.816414 29.824219 32.542969 C 30.197321 32.814755 30.361538 33.157922 30.541016 34.042969 C 31.334759 37.957127 34.553508 41.144717 38.880859 42.302734 C 40.917383 42.847717 43.825172 42.721136 45.921875 41.996094 C 48.604889 41.068307 50.940002 39.213037 52.222656 36.992188 C 52.816365 35.964213 53.460938 34.043433 53.460938 33.300781 C 53.460937 32.965715 53.6088 32.703315 53.910156 32.505859 C 54.831722 31.902025 54.249149 31.08072 53.199219 30.896484 z "
       style="display:inline;opacity:0.44500002;fill:#ffff00"
       id="path4220"
       d="m 47.097656,21.783203 c -1.75969,0.330159 -3.205078,1.780683 -3.205078,3.625 0,1.57219 1.163853,3.091979 2.69336,3.585938 0.481744,0.155614 1.0802,0.152826 1.671874,0.107421 2.110232,-0.16195 3.41123,-1.70551 3.564454,-3.33789 0.153223,-1.63238 -0.842217,-3.387125 -2.888672,-3.917969 -0.62254,-0.161484 -1.249653,-0.172501 -1.835938,-0.0625 z m -11.404297,0.01172 c -1.729618,0.358158 -3.142578,1.831555 -3.142578,3.675781 0,1.489333 1.046642,2.860732 2.533203,3.490235 0.557858,0.236233 1.214085,0.244221 1.88086,0.158203 0.666775,-0.08602 1.329781,-0.275135 1.849609,-0.619141 1.36295,-0.901958 1.897809,-2.387845 1.626953,-3.724609 -0.270855,-1.336765 -1.330723,-2.528066 -2.943359,-2.939453 -0.611379,-0.155964 -1.227752,-0.160483 -1.804688,-0.04102 z m 17.603516,8.541016 c -0.433523,-0.07607 -0.917776,-0.06137 -1.414063,0.07227 -0.535402,0.14417 -1.006457,0.342788 -1.287109,0.867188 -0.05653,0.105628 -0.114582,0.217323 -0.146484,0.376953 -0.0319,0.15963 -0.01199,0.369735 0.05859,0.529297 0.141174,0.319122 0.343177,0.461022 0.619141,0.691406 l 0.328125,0.271484 -0.132812,0.507813 c -0.621171,2.389713 -2.799059,5.064645 -4.962891,6.113281 -5.288033,2.56268 -11.621608,0.160026 -13.578125,-5.107422 -0.316302,-0.851562 -0.447303,-1.344689 -0.449219,-1.482422 -9.58e-4,-0.06887 -0.0036,-0.02438 -0.0059,-0.02148 -0.0022,0.0029 0.04259,-0.04324 0.169922,-0.115235 0.354811,-0.200608 0.633628,-0.459476 0.765625,-0.810546 0.131997,-0.351071 0.0516,-0.768737 -0.15625,-1.050782 -0.415695,-0.564088 -1.148734,-0.785156 -2.054688,-0.785156 -0.884155,0 -1.599405,0.193962 -2.021484,0.738281 -0.21104,0.27216 -0.301356,0.672469 -0.199219,1.019532 0.102138,0.347062 0.343608,0.620973 0.660156,0.851562 0.126563,0.09219 0.176982,0.149792 0.251954,0.306641 0.07497,0.156848 0.156318,0.424215 0.242187,0.847656 0.841315,4.148747 4.238891,7.488121 8.75,8.695312 2.188382,0.585621 5.142158,0.453085 7.373047,-0.318359 2.808022,-0.971015 5.243853,-2.89491 6.607422,-5.255859 0.329003,-0.569652 0.643695,-1.326445 0.888672,-2.056641 0.244976,-0.730196 0.425781,-1.384035 0.425781,-1.919922 -10e-7,-0.167725 0.01388,-0.200763 0.193359,-0.318359 0.302812,-0.19841 0.536566,-0.450888 0.648438,-0.765625 0.111872,-0.314737 0.0693,-0.669757 -0.07422,-0.939453 -0.287043,-0.539392 -0.850956,-0.827516 -1.5,-0.941406 z" />
  </g>
  <g
     inkscape:groupmode="layer"
     id="layer2"
     inkscape:label="Mask"
     style="display:inline;opacity:0.44500002">
    <path
       sodipodi:nodetypes="sssssssscssssssssssssscsssc"
       inkscape:connector-curvature="0"
       id="path3761"
       d="M 38.880001,42.302445 C 34.55265,41.144428 31.334032,37.956558 30.540289,34.0424 c -0.179478,-0.885047 -0.343402,-1.228228 -0.716504,-1.500014 -0.9974,-0.726555 -0.334204,-1.582385 1.226216,-1.582385 1.584639,0 2.286014,0.951068 1.167674,1.583372 -0.611627,0.34581 -0.608398,0.593829 0.03012,2.312875 2.076228,5.589742 8.785795,8.122461 14.360578,5.420816 2.358971,-1.143204 4.590666,-3.891442 5.264214,-6.482655 l 0.222399,-0.855593 -0.603063,-0.50346 c -0.530106,-0.442551 -0.577824,-0.550621 -0.394431,-0.893293 0.121065,-0.226211 0.513265,-0.471863 0.934422,-0.58527 1.66207,-0.447548 3.106843,0.744649 1.878089,1.549761 -0.301356,0.197456 -0.45,0.460121 -0.45,0.795187 0,0.742652 -0.643919,2.663018 -1.237628,3.690992 -1.282654,2.220849 -3.618163,4.075182 -6.301177,5.002969 -2.096703,0.725042 -5.004673,0.851726 -7.041197,0.306743 z M 35.30613,28.437133 c -1.297068,-0.549259 -2.186129,-1.755378 -2.186129,-2.965743 0,-2.066888 2.13532,-3.621814 4.237319,-3.08559 2.840272,0.724561 3.517729,4.067069 1.142847,5.638692 -0.804786,0.532582 -2.418488,0.741059 -3.194037,0.412641 z m 11.456316,0.01544 c -1.258456,-0.406422 -2.302445,-1.787187 -2.302445,-3.045188 0,-2.059448 2.173232,-3.570445 4.330462,-3.010867 3.613761,0.937397 3.152615,5.853332 -0.575923,6.13948 -0.530496,0.04071 -1.183939,0.0032 -1.452094,-0.08342 z"
       style="display:inline;fill:#00ffff" />
  </g>
</svg>
